<?xml version="1.0" standalone="no"?>
<!DOCTYPE svg PUBLIC "-//W3C//DTD SVG 20010904//EN"
 "http://www.w3.org/TR/2001/REC-SVG-20010904/DTD/svg10.dtd">
<svg version="1.0" xmlns="http://www.w3.org/2000/svg"
 width="195.000000pt" height="195.000000pt" viewBox="0 0 195.000000 195.000000"
 preserveAspectRatio="xMidYMid meet">

<g transform="translate(0.000000,195.000000) scale(0.100000,-0.100000)"
fill="#A79258" stroke="none">
<path d="M930 1832 c0 -23 4 -42 9 -42 6 0 7 17 4 38 -8 51 -13 53 -13 4z"/>
<path d="M1000 1820 c0 -16 4 -30 10 -30 5 0 7 6 4 14 -3 8 0 17 5 21 12 7 5
25 -10 25 -5 0 -9 -13 -9 -30z"/>
<path d="M1151 1841 c-8 -5 -15 -24 -17 -43 -3 -30 -2 -31 8 -10 14 27 32 29
25 2 -3 -11 -2 -20 3 -20 15 0 19 41 4 47 -8 3 -14 9 -14 15 0 5 5 6 12 2 7
-4 8 -3 4 4 -8 14 -7 14 -25 3z"/>
<path d="M879 1832 c9 -7 10 -12 2 -16 -14 -9 -15 -36 -1 -36 5 0 7 7 4 15 -7
18 12 20 20 3 3 -7 4 -2 3 12 -1 16 -9 26 -22 28 -15 2 -17 1 -6 -6z"/>
<path d="M967 1827 c-3 -8 -1 -20 4 -28 6 -10 9 -7 9 14 0 29 -5 35 -13 14z"/>
<path d="M1053 1815 c1 -17 -2 -36 -6 -43 -5 -6 -4 -12 2 -12 6 0 17 13 26 30
18 34 20 54 3 25 -12 -19 -12 -19 -19 5 -8 24 -8 23 -6 -5z"/>
<path d="M834 1812 c10 -29 -12 -38 -23 -10 -10 23 -10 23 -10 1 -1 -26 11
-35 33 -27 18 7 21 39 5 50 -7 4 -9 0 -5 -14z"/>
<path d="M727 1798 c-7 -21 13 -50 30 -43 9 3 20 0 25 -7 11 -19 10 4 -2 36
-10 27 -45 36 -53 14z m41 -16 c2 -7 -3 -12 -12 -12 -9 0 -16 7 -16 16 0 17
22 14 28 -4z"/>
<path d="M1204 1784 c-4 -14 -4 -28 0 -31 3 -4 6 1 6 10 0 9 7 20 16 25 15 8
15 10 0 15 -11 5 -18 -1 -22 -19z"/>
<path d="M632 1763 c17 -41 31 -53 23 -20 -8 32 10 38 20 6 4 -11 9 -18 12
-16 3 3 2 15 -2 27 -5 15 -13 20 -26 17 -10 -3 -19 -1 -19 4 0 5 -4 9 -10 9
-6 0 -5 -11 2 -27z"/>
<path d="M1252 1778 c-17 -17 -15 -35 4 -42 26 -10 29 -7 8 10 -18 15 -18 15
4 9 19 -6 23 -3 20 11 -4 22 -20 28 -36 12z m28 -8 c0 -5 -2 -10 -4 -10 -3 0
-8 5 -11 10 -3 6 -1 10 4 10 6 0 11 -4 11 -10z"/>
<path d="M1334 1753 c4 -7 2 -13 -4 -13 -6 0 -8 -4 -5 -10 3 -5 2 -10 -4 -10
-5 0 -12 6 -14 13 -3 7 -6 5 -6 -5 -1 -23 35 -24 43 -1 4 9 1 21 -5 27 -9 8
-10 8 -5 -1z"/>
<path d="M583 1743 c-17 -6 -16 -28 0 -42 10 -8 17 -7 25 1 9 9 12 8 12 -5 0
-9 -5 -17 -12 -17 -6 0 -8 -3 -5 -6 4 -4 13 -1 21 6 14 11 14 15 0 41 -15 29
-19 32 -41 22z m22 -33 c-5 -8 -11 -8 -17 -2 -6 6 -7 16 -3 22 5 8 11 8 17 2
6 -6 7 -16 3 -22z"/>
<path d="M1360 1712 l-12 -27 24 20 c12 11 24 20 26 21 2 1 -4 4 -11 7 -9 3
-19 -5 -27 -21z"/>
<path d="M841 1720 c-249 -53 -460 -220 -561 -444 -100 -223 -85 -484 42 -701
60 -102 183 -220 283 -271 138 -71 195 -87 337 -92 192 -7 318 29 476 137 218
147 348 445 312 708 -24 180 -92 317 -219 444 -99 99 -178 148 -306 191 -75
26 -109 31 -205 34 -63 2 -135 -1 -159 -6z m254 -145 c45 -8 114 -32 162 -56
198 -95 343 -312 343 -512 0 -82 -23 -72 -31 14 -15 144 -68 258 -169 359
-118 118 -259 174 -435 173 -81 0 -115 -5 -180 -27 -249 -84 -414 -311 -415
-569 0 -43 -3 -57 -12 -54 -20 6 -15 170 7 237 73 226 249 385 479 435 82 18
159 18 251 0z m-16 -170 c232 -55 385 -292 337 -522 -40 -191 -183 -330 -374
-363 -237 -40 -470 133 -512 377 -37 221 117 454 336 507 78 19 135 19 213 1z
m446 -599 c14 -33 16 -34 47 -25 18 5 34 9 35 9 2 0 3 -9 3 -19 0 -14 -9 -21
-31 -26 -28 -6 -29 -8 -15 -24 34 -37 13 -53 -34 -26 -34 20 -50 19 -22 -1 33
-23 42 -54 26 -85 -19 -37 -41 -42 -79 -19 -44 27 -56 43 -46 59 7 11 16 8 44
-14 58 -43 82 -10 26 36 -31 25 -32 27 -18 57 10 24 18 30 32 26 16 -5 18 -2
12 18 -8 25 -8 25 -6 51 2 26 11 21 26 -17z m-1077 -38 c5 -7 13 -24 17 -38 4
-14 18 -39 31 -56 34 -44 31 -71 -11 -95 -19 -12 -35 -25 -35 -30 0 -13 5 -12
61 17 68 34 84 23 62 -42 -20 -59 -11 -66 18 -15 17 32 25 38 36 30 7 -6 13
-24 13 -39 0 -37 9 -43 29 -19 16 20 16 20 67 -5 28 -14 54 -32 58 -41 17 -46
-8 -95 -49 -95 -35 0 -87 21 -82 34 2 6 7 22 11 36 6 24 6 24 -9 -2 -9 -16
-20 -28 -25 -28 -14 0 -30 35 -30 65 l0 27 -18 -22 c-16 -19 -20 -20 -45 -9
-19 9 -27 18 -24 30 6 22 -25 52 -45 44 -19 -8 -48 35 -48 70 0 21 -4 25 -19
20 -22 -7 -35 17 -18 34 8 8 7 11 -5 11 -20 0 -48 37 -48 64 0 47 81 87 108
54z m954 -195 c10 -9 18 -22 18 -29 0 -7 8 -18 18 -23 14 -9 15 -12 3 -20 -8
-5 -20 -7 -27 -4 -21 8 -37 -6 -24 -22 7 -9 6 -16 -4 -24 -12 -10 -19 -5 -41
24 -15 19 -30 35 -34 35 -3 0 -17 -10 -31 -21 l-25 -20 33 6 c36 7 44 -9 15
-31 -27 -19 -8 -28 20 -9 21 14 25 14 30 1 4 -10 -6 -22 -27 -35 -44 -27 -52
-26 -70 7 l-15 27 -1 -36 c0 -21 -7 -42 -16 -50 -13 -11 -19 -8 -39 17 l-24
29 -1 -36 c0 -46 -22 -57 -49 -24 -22 29 -31 31 -31 10 0 -24 -37 -55 -65 -55
-15 0 -36 11 -48 24 -18 19 -27 22 -40 14 -10 -5 -25 -7 -33 -4 -8 3 -17 -1
-20 -9 -4 -8 -12 -15 -20 -15 -15 0 -19 44 -8 99 5 25 11 31 33 31 15 0 36 -7
49 -15 19 -14 24 -14 44 -1 13 8 43 15 68 14 36 0 49 -5 67 -27 l22 -26 1 37
c0 50 18 58 47 22 l23 -29 0 37 c0 32 5 39 45 62 24 15 59 40 77 56 37 34 54
37 80 13z"/>
<path d="M892 1320 c-227 -48 -345 -315 -235 -533 86 -172 310 -234 493 -136
102 54 162 145 181 272 17 118 31 107 -139 107 l-149 0 -66 -70 -66 -70 108 0
c59 0 111 -3 114 -6 12 -13 -37 -67 -77 -85 -129 -59 -265 37 -254 178 5 59
23 90 82 137 33 27 46 31 99 31 48 0 69 -5 93 -22 l32 -23 60 62 61 63 -26 27
c-56 58 -204 91 -311 68z"/>
<path d="M380 735 c-15 -19 -4 -56 16 -48 8 3 21 0 29 -7 13 -11 15 -8 15 17
0 47 -34 69 -60 38z"/>
<path d="M456 642 c-2 -4 -1 -14 4 -22 7 -11 12 -12 21 -3 6 6 8 16 5 22 -8
13 -23 14 -30 3z"/>
<path d="M531 541 c-8 -5 -9 -11 -3 -15 5 -3 12 1 16 9 6 17 6 18 -13 6z"/>
<path d="M716 418 c-10 -39 -7 -48 18 -48 29 0 44 33 26 55 -18 22 -37 18 -44
-7z"/>
<path d="M1351 546 c-9 -10 -9 -16 -1 -21 17 -10 37 12 24 25 -8 8 -15 6 -23
-4z"/>
<path d="M996 384 c-19 -18 -19 -20 -6 -45 14 -25 36 -24 50 1 8 14 8 26 0 40
-13 24 -23 25 -44 4z"/>
<path d="M880 374 c0 -9 7 -14 17 -12 25 5 28 28 4 28 -12 0 -21 -6 -21 -16z"/>
<path d="M540 1714 c0 -6 7 -19 15 -30 8 -10 14 -14 14 -9 0 6 -6 19 -14 29
-8 11 -15 15 -15 10z"/>
<path d="M496 1696 c7 -19 -16 -32 -27 -15 -7 11 -9 12 -9 1 0 -8 10 -26 21
-40 19 -24 21 -24 15 -5 -8 26 9 39 29 23 20 -16 19 -5 -1 25 -17 27 -37 34
-28 11z"/>
<path d="M1402 1690 c-7 -11 -8 -20 -3 -20 5 0 12 7 15 16 3 8 10 12 16 9 7
-4 6 -14 -2 -28 -10 -20 -10 -21 5 -8 21 17 22 37 1 45 -9 3 -16 6 -17 6 -1 0
-8 -9 -15 -20z"/>
<path d="M1466 1672 c2 -2 -2 -14 -8 -26 -10 -20 -10 -20 8 -4 12 12 15 21 8
27 -6 5 -9 6 -8 3z"/>
<path d="M1495 1640 c-4 -6 -3 -15 1 -22 5 -8 2 -9 -11 -4 -15 5 -16 4 -5 -9
14 -17 34 -10 26 10 -3 8 3 15 12 17 16 3 16 4 0 10 -10 4 -20 3 -23 -2z"/>
<path d="M416 328 c-8 -33 -7 -40 6 -36 12 4 19 58 7 58 -4 0 -9 -10 -13 -22z"/>
<path d="M1511 334 c-1 -14 -7 -21 -18 -20 -14 1 -17 -5 -15 -26 3 -32 -4 -35
-30 -11 -10 9 -18 12 -18 6 0 -5 9 -18 20 -28 19 -17 22 -18 37 -2 13 13 15
20 5 29 -20 20 -13 32 8 13 11 -10 20 -13 20 -7 0 7 8 12 17 12 15 0 15 1 1
13 -9 6 -18 19 -21 27 -4 10 -6 8 -6 -6z"/>
<path d="M449 328 c-8 -31 -5 -58 6 -58 8 0 17 5 20 10 13 20 21 9 17 -22 -4
-27 -2 -31 9 -20 17 16 30 15 23 -2 -8 -20 12 -28 26 -11 19 22 28 18 22 -10
-5 -27 7 -32 26 -13 9 9 12 7 12 -10 0 -28 16 -28 31 1 11 20 11 21 -4 8 -15
-12 -17 -11 -17 8 0 23 -10 27 -27 10 -9 -9 -10 -6 -6 11 5 20 3 22 -20 18
-22 -4 -27 -2 -27 15 0 16 -3 18 -12 9 -18 -18 -27 -14 -21 9 5 20 3 21 -21
15 -24 -6 -27 -4 -21 14 4 11 2 20 -4 20 -6 0 -11 -1 -12 -2z"/>
<path d="M1374 245 c-8 -21 2 -45 19 -45 20 0 40 27 33 45 -7 19 -45 20 -52 0z
m34 -12 c-4 -22 -22 -20 -26 1 -2 10 3 16 13 16 10 0 15 -7 13 -17z"/>
<path d="M1323 218 c-5 -7 -10 -24 -11 -38 -1 -14 2 -20 6 -15 4 6 16 10 26
10 11 0 21 7 24 15 4 12 2 13 -9 3 -19 -18 -29 -16 -29 6 0 11 8 22 18 24 14
4 14 5 1 6 -9 0 -21 -5 -26 -11z"/>
<path d="M671 186 c-6 -7 -9 -21 -5 -30 7 -18 39 -22 50 -5 4 8 0 9 -15 4 -15
-4 -21 -2 -21 8 0 21 12 28 27 16 8 -7 13 -8 13 -1 0 5 -7 13 -16 16 -21 8
-20 8 -33 -8z"/>
<path d="M1251 191 c-10 -7 -11 -15 -3 -37 6 -16 11 -23 11 -16 1 6 8 12 17
12 10 0 14 7 12 22 -3 25 -17 32 -37 19z m23 -22 c-3 -5 -10 -7 -15 -3 -5 3
-7 10 -3 15 3 5 10 7 15 3 5 -3 7 -10 3 -15z"/>
<path d="M1201 181 c-10 -6 -11 -16 -5 -34 7 -19 13 -23 29 -16 l20 8 -20 0
c-17 1 -17 3 -5 11 12 8 12 10 -5 10 -20 1 -20 1 -1 15 21 16 10 21 -13 6z"/>
<path d="M728 155 c-4 -19 -2 -25 8 -21 7 3 18 -2 25 -10 7 -8 19 -12 27 -9 8
3 21 0 28 -6 11 -9 14 -7 14 7 0 25 -17 50 -27 41 -4 -5 -1 -13 7 -18 13 -9
13 -10 -1 -6 -9 3 -21 1 -27 -5 -8 -8 -11 -3 -9 18 2 23 -3 30 -19 32 -16 2
-23 -3 -26 -23z m37 5 c3 -5 -1 -10 -10 -10 -9 0 -13 5 -10 10 3 6 8 10 10 10
2 0 7 -4 10 -10z"/>
<path d="M1130 149 c-1 -21 -2 -22 -13 -8 -14 18 -77 15 -77 -4 0 -7 -4 -7
-12 1 -7 7 -20 12 -30 12 -14 0 -18 -8 -18 -32 0 -18 4 -28 8 -22 13 19 40 23
52 8 7 -8 18 -14 26 -14 16 0 33 30 27 50 -2 8 2 5 8 -7 14 -27 39 -30 39 -6
0 15 2 14 14 -3 14 -18 15 -18 21 9 4 15 5 31 1 34 -3 4 -6 -2 -6 -12 0 -17
-1 -17 -20 0 -19 18 -20 17 -20 -6z m-120 -19 c0 -5 -4 -10 -10 -10 -5 0 -10
5 -10 10 0 6 5 10 10 10 6 0 10 -4 10 -10z m68 -7 c-4 -22 -22 -20 -26 1 -2
10 3 16 13 16 10 0 15 -7 13 -17z"/>
<path d="M851 129 c0 -19 3 -28 6 -21 4 10 9 9 24 -4 18 -16 19 -16 18 17 0
19 -3 28 -6 21 -4 -10 -9 -9 -24 4 -18 16 -19 16 -18 -17z"/>
<path d="M910 120 c0 -25 4 -30 25 -30 14 0 28 7 31 15 8 20 -13 45 -37 45
-14 0 -19 -7 -19 -30z m44 -11 c-8 -14 -34 -11 -34 4 0 8 3 17 7 20 9 9 34
-13 27 -24z"/>
</g>
</svg>
